<?xml version="1.0" encoding="UTF-8"?>
<svg id="Layer_1" xmlns="http://www.w3.org/2000/svg" version="1.1" viewBox="0 0 24 24">
  <!-- Generator: Adobe Illustrator 29.6.1, SVG Export Plug-In . SVG Version: 2.1.1 Build 9)  -->
  <defs>
    <style>
      .st0 {
        fill: #fff;
      }
    </style>
  </defs>
  <path class="st0" d="M3.13,1.34C2.08,1.96.02,4.33,0,4.95v1.03c0,1.3,1.22,2.45,2.33,2.45,1.33,0,2.44-1.1,2.44-2.41,0,1.31,1.07,2.41,2.4,2.41s2.36-1.1,2.36-2.41c0,1.31,1.14,2.41,2.47,2.41h.02c1.33,0,2.47-1.1,2.47-2.41,0,1.31,1.03,2.41,2.36,2.41s2.4-1.1,2.4-2.41c0,1.31,1.11,2.41,2.43,2.41,1.1,0,2.32-1.15,2.32-2.45v-1.03c-.02-.62-2.08-2.99-3.13-3.61-3.25-.11-5.51-.13-8.87-.13-3.36,0-7.95.05-8.87.13ZM9.51,7.82c-.13.22-.28.42-.47.6-.5.49-1.19.8-1.95.8-.73,0-1.43-.29-1.95-.8-.18-.18-.32-.37-.45-.59-.13.22-.3.41-.49.59-.52.51-1.22.8-1.95.8-.09,0-.19-.02-.26-.05-.11,1.11-.15,2.18-.17,2.95h0s0,1.17,0,1.17c.02,2.33-.23,7.56,1.03,8.85,1.95.45,5.55.66,9.15.66,3.6,0,7.2-.21,9.15-.66,1.26-1.28,1.01-6.51,1.03-8.85v-1.17s0,0,0,0c-.02-.77-.06-1.84-.17-2.95-.08.03-.17.05-.26.05-.73,0-1.43-.29-1.95-.8-.18-.18-.36-.37-.49-.59-.13.22-.26.41-.45.59-.52.51-1.22.79-1.95.79-.76,0-1.45-.3-1.95-.79-.18-.18-.34-.38-.47-.6-.13.22-.28.42-.46.6-.52.51-1.22.79-1.95.79h-.16c-.73,0-1.43-.28-1.95-.79-.18-.18-.34-.38-.46-.6h0ZM7.5,10.41h0c.8,0,1.5,0,2.37.95.69-.07,1.41-.11,2.12-.11.72,0,1.44.03,2.12.11.87-.95,1.58-.95,2.37-.95.38,0,1.88,0,2.92,2.93l1.12,4.03c.83,2.99-.27,3.07-1.64,3.07-2.03-.08-3.16-1.55-3.16-3.02-1.12.18-2.44.28-3.75.28-1.31,0-2.62-.09-3.75-.28,0,1.48-1.12,2.95-3.16,3.03-1.37,0-2.47-.08-1.64-3.07l1.12-4.03c1.05-2.93,2.55-2.93,2.92-2.93h0ZM12,12.71s-2.14,1.96-2.52,2.66l1.4-.06v1.22c0,.06.56.03,1.12,0,.56.03,1.12.05,1.12,0v-1.22l1.4.06c-.39-.7-2.52-2.66-2.52-2.66h0Z"/>
</svg>